<svg width="25" height="20" viewBox="0 0 25 20" fill="none" xmlns="http://www.w3.org/2000/svg">
<path d="M11.8233 0.679624C11.6727 0.579376 11.4978 0.521841 11.3171 0.513149C11.1364 0.504457 10.9568 0.544933 10.7973 0.630265C10.6378 0.715596 10.5044 0.842589 10.4114 0.997718C10.3184 1.15285 10.2692 1.3303 10.269 1.51118L10.269 7.99677L2.7836 7.99677C2.25927 8.00588 1.75949 8.22057 1.39191 8.59459C1.02433 8.96862 0.818359 9.47205 0.818359 9.99646C0.818359 10.5209 1.02433 11.0243 1.39191 11.3983C1.75949 11.7724 2.25927 11.987 2.7836 11.9962L10.2669 11.994L10.2669 18.4796C10.2654 18.6615 10.3135 18.8404 10.406 18.9969C10.4986 19.1535 10.6321 19.2819 10.7922 19.3682C10.9523 19.4545 11.1329 19.4956 11.3146 19.4869C11.4963 19.4782 11.6721 19.4202 11.8233 19.319L24.5512 10.8337C24.6891 10.7425 24.8023 10.6186 24.8807 10.473C24.959 10.3274 25 10.1646 25 9.99929C25 9.83395 24.959 9.67119 24.8807 9.52557C24.8023 9.37996 24.6891 9.25604 24.5512 9.16491L11.8233 0.679624Z" fill="white"/>
</svg>
