<svg width="34" height="35" viewBox="0 0 34 35" fill="none" xmlns="http://www.w3.org/2000/svg">
<g clip-path="url(#clip0_2019_42)">
<path fill-rule="evenodd" clip-rule="evenodd" d="M6.3115 4.4137C3.75316 4.63752 1.86065 6.89293 2.08447 9.45128L3.70557 27.9805C3.9294 30.5389 6.18481 32.4314 8.74315 32.2075L27.2724 30.5864C29.8308 30.3626 31.7232 28.1073 31.4994 25.5489L30.5538 14.7401C30.3299 12.1818 28.0746 10.2893 25.5162 10.5131L7.75901 12.0667C6.47983 12.1786 5.35214 11.2323 5.24022 9.95314C5.12831 8.67396 6.07456 7.54627 7.35374 7.43435L25.1109 5.8808C25.9637 5.80619 26.5945 5.05439 26.5199 4.20161C26.4453 3.34883 25.6935 2.71799 24.8407 2.7926L6.3115 4.4137ZM24.2808 23.0686C25.5599 22.9567 26.5062 21.8289 26.3943 20.5498C26.2824 19.2706 25.1546 18.3243 23.8755 18.4363C22.5964 18.5482 21.6501 19.6759 21.762 20.955C21.8739 22.2342 23.0016 23.1805 24.2808 23.0686Z" fill="#532100"/>
</g>
<defs>
<clipPath id="clip0_2019_42">
<rect width="31" height="31" fill="white" transform="translate(0 3.40991) rotate(-5)"/>
</clipPath>
</defs>
</svg>
