<svg width="32" height="33" viewBox="0 0 32 33" fill="none" xmlns="http://www.w3.org/2000/svg">
<path d="M21.3614 17.1251L22.528 30.4588L11.4166 31.4309L10.25 18.0972C10.1966 17.4861 10.6528 16.9423 11.264 16.8889L20.1531 16.1112C20.7642 16.0577 21.308 16.514 21.3614 17.1251Z" fill="#532100"/>
<path d="M15.4994 2.58999L17.318 5.58828L20.8174 5.78597C21.2445 5.80458 21.6152 6.07446 21.7835 6.4628C21.9519 6.85115 21.8796 7.30532 21.6059 7.63158L19.3187 10.2837L20.209 13.6767C20.3126 14.0931 20.1819 14.5188 19.8598 14.8045C19.5377 15.0902 19.0841 15.1523 18.7009 14.9955L15.47 13.6435L12.5229 15.536C12.1626 15.769 11.7153 15.7746 11.3484 15.5492C10.9826 15.3348 10.779 14.9272 10.8087 14.4991L11.0963 11.0031L8.3833 8.7884C8.05705 8.51464 7.90802 8.09102 8.00539 7.66823C8.10373 7.25656 8.42193 6.92641 8.83931 6.83392L12.2512 6.03157L13.5216 2.76303C13.6774 2.36872 14.0449 2.09024 14.4671 2.0533C14.8894 2.01636 15.2997 2.22679 15.5216 2.58805L15.4994 2.58999Z" fill="#532100"/>
<path d="M29.4311 19.7781L23.8754 20.2642L24.7503 30.2644L30.306 29.7784C30.9171 29.7249 31.3734 29.1811 31.3199 28.57L30.6394 20.792C30.586 20.1809 30.0422 19.7246 29.4311 19.7781Z" fill="#532100"/>
<path d="M2.95819 24.3335C2.34706 24.3869 1.89079 24.9307 1.94426 25.5418L2.43032 31.0975C2.48379 31.7086 3.02754 32.1649 3.63867 32.1114L9.19437 31.6254L8.51389 23.8474L2.95819 24.3335Z" fill="#532100"/>
</svg>
