<svg width="31" height="35" viewBox="0 0 31 35" fill="none" xmlns="http://www.w3.org/2000/svg">
<path d="M28.0894 8.05653L14.4252 1.73493C14.1213 1.59433 13.7649 1.62552 13.49 1.81674L1.13112 10.4151C0.856296 10.6062 0.704881 10.9284 0.733906 11.2602L2.03923 26.1801C2.06826 26.5119 2.27331 26.8028 2.57716 26.9434L16.2414 33.265C16.5453 33.4056 16.9017 33.3744 17.1765 33.1832L29.5355 24.5848C29.8103 24.3937 29.9617 24.0715 29.9327 23.7397L28.6274 8.81981C28.5983 8.48804 28.3933 8.19706 28.0894 8.05653ZM12.0887 20.7906C12.1335 21.3035 11.7512 21.7559 11.2348 21.8011L10.2331 21.8887C9.85557 21.9218 9.4954 21.7261 9.31993 21.3928L7.25655 17.473L7.58131 21.185C7.64299 22.4198 5.86422 22.5745 5.71104 21.3486L5.18891 15.3806C5.14405 14.8678 5.52636 14.4154 6.0428 14.3702L7.04446 14.2826C7.422 14.2495 7.78218 14.4452 7.95765 14.7785L10.021 18.6984L9.69626 14.9863C9.63459 13.7515 11.4134 13.5968 11.5665 14.8227L12.0887 20.7906ZM18.1584 15.1817L15.1535 15.4446L15.2956 17.0686L17.2988 16.8934C18.5422 16.8306 18.6958 18.597 17.4613 18.7506L15.458 18.9259L15.5944 20.4839C15.656 21.7188 13.8773 21.8735 13.7241 20.6476L13.202 14.6796C13.1571 14.1667 13.5394 13.7143 14.0559 13.6692L17.9959 13.3244C19.2393 13.2617 19.3929 15.0281 18.1584 15.1817ZM24.669 14.6121L23.6009 14.7055L24.0417 19.7449C24.1034 20.9797 22.3246 21.1344 22.1715 19.9085L21.7306 14.8692L20.6625 14.9626C19.4191 15.0254 19.2655 13.259 20.5 13.1054L24.5065 12.7548C25.7499 12.6921 25.9035 14.4585 24.669 14.6121Z" fill="#532100"/>
</svg>
