<svg width="30" height="26" viewBox="0 0 30 26" fill="none" xmlns="http://www.w3.org/2000/svg">
<path d="M0.165405 5.91986C0.165405 4.91885 0.976895 4.10736 1.97791 4.10736H4.91449C6.91974 4.10736 8.70891 4.92214 10.2323 6.52903C10.921 7.25551 10.8904 8.40271 10.1639 9.0914C9.81346 9.42371 9.36492 9.58853 8.91723 9.58853C8.43709 9.58853 7.95797 9.39896 7.60158 9.02303C6.7782 8.15456 5.89925 7.73236 4.91449 7.73236H1.97791C0.976895 7.73236 0.165405 6.92087 0.165405 5.91986ZM19.998 7.73236H22.9771L22.4187 8.29084C21.7108 8.99868 21.7108 10.1463 22.4187 10.8541C22.7726 11.2081 23.2364 11.385 23.7003 11.385C24.1641 11.385 24.628 11.2081 24.9819 10.8541L28.6345 7.20147C29.3424 6.49363 29.3424 5.34604 28.6345 4.6382L24.9819 0.98556C24.2741 0.277722 23.1265 0.277722 22.4187 0.98556C21.7108 1.6934 21.7108 2.84099 22.4187 3.54883L22.9772 4.10736H19.9981C18.6485 4.10736 17.3803 4.48493 16.2286 5.22959C15.156 5.92309 14.1842 6.94274 13.3403 8.26014L8.5199 15.7845C7.44945 17.4554 6.27013 18.2677 4.91449 18.2677H1.97791C0.976895 18.2677 0.165405 19.0792 0.165405 20.0802C0.165405 21.0812 0.976895 21.8927 1.97791 21.8927H4.91449C6.26407 21.8927 7.53225 21.5151 8.68393 20.7705C9.75653 20.077 10.7283 19.0573 11.5723 17.7399L16.3927 10.2155C17.4631 8.54459 18.6424 7.73236 19.998 7.73236ZM24.9819 15.1459C24.2741 14.438 23.1265 14.438 22.4187 15.1459C21.7108 15.8537 21.7108 17.0013 22.4187 17.7092L22.9771 18.2676H19.998C19.0132 18.2676 18.1342 17.8454 17.3109 16.977C16.6222 16.2505 15.475 16.2199 14.7486 16.9086C14.0221 17.5973 13.9915 18.7445 14.6802 19.471C16.2036 21.0779 17.9928 21.8926 19.998 21.8926H22.9771L22.4186 22.4512C21.7108 23.159 21.7108 24.3066 22.4186 25.0144C22.7725 25.3684 23.2364 25.5453 23.7002 25.5453C24.164 25.5453 24.6279 25.3684 24.9818 25.0144L28.6345 21.3618C29.3423 20.654 29.3423 19.5064 28.6345 18.7985L24.9819 15.1459Z" fill="white"/>
</svg>
