<svg width="29" height="29" viewBox="0 0 29 29" fill="none" xmlns="http://www.w3.org/2000/svg">
<g clip-path="url(#clip0_2_1701)">
<path d="M18 3.64412C18 2.79629 17.0111 2.33313 16.3598 2.8759L9.68904 8.43485C9.50932 8.58461 9.28279 8.66663 9.04885 8.66663H5.16663C3.23363 8.66663 1.66663 10.2336 1.66663 12.1666V16.8333C1.66663 18.7663 3.23363 20.3333 5.16663 20.3333H9.04885C9.28279 20.3333 9.50932 20.4153 9.68903 20.5651L16.3598 26.124C17.0111 26.6668 18 26.2036 18 25.3558V3.64412Z" fill="white"/>
<path fill-rule="evenodd" clip-rule="evenodd" d="M20.2509 9.43239C20.6414 9.04186 21.2746 9.04186 21.6651 9.43239L21.783 9.55023C23.0484 10.8157 23.8333 12.5673 23.8333 14.5C23.8333 16.4327 23.0484 18.1842 21.783 19.4497L21.6651 19.5675C21.2746 19.9581 20.6414 19.9581 20.2509 19.5675L20.0152 19.3319C19.6247 18.9413 19.6247 18.3082 20.0152 17.9176L20.1331 17.7998C20.9789 16.9541 21.4999 15.7889 21.4999 14.5C21.4999 13.2109 20.9789 12.0459 20.1331 11.2001L20.0152 11.0823C19.6247 10.6918 19.6247 10.0586 20.0152 9.66808L20.2509 9.43239Z" fill="white"/>
<path fill-rule="evenodd" clip-rule="evenodd" d="M23.5508 6.13257C23.9413 5.74206 24.5745 5.74207 24.965 6.1326L25.0829 6.25046C27.1928 8.36044 28.4999 11.2787 28.4999 14.5C28.4999 17.7214 27.1928 20.6397 25.0829 22.7496L24.965 22.8675C24.5745 23.258 23.9413 23.258 23.5508 22.8675L23.3151 22.6318C22.9245 22.2412 22.9245 21.6081 23.315 21.2175L23.4329 21.0997C25.1232 19.4094 26.1666 17.0777 26.1666 14.5C26.1666 11.9224 25.1232 9.59065 23.4329 7.90037L23.315 7.78255C22.9245 7.39202 22.9245 6.75884 23.3151 6.36832L23.5508 6.13257Z" fill="white"/>
</g>
<defs>
<clipPath id="clip0_2_1701">
<rect width="28" height="28" fill="white" transform="translate(0.5 0.5)"/>
</clipPath>
</defs>
</svg>
